<?xml version="1.0" standalone="no"?>
<!DOCTYPE svg PUBLIC "-//W3C//DTD SVG 20010904//EN"
 "http://www.w3.org/TR/2001/REC-SVG-20010904/DTD/svg10.dtd">
<svg version="1.0" xmlns="http://www.w3.org/2000/svg"
 width="380.000000pt" height="261.000000pt" viewBox="0 0 380.000000 261.000000"
 preserveAspectRatio="xMidYMid meet">

<g transform="translate(0.000000,261.000000) scale(0.100000,-0.100000)"
fill="#000000" stroke="none">
<path d="M10 1295 l0 -1285 1890 0 1890 0 0 1285 0 1285 -1890 0 -1890 0 0
-1285z m3220 810 l0 -185 100 0 100 0 0 -90 0 -90 -100 0 -100 0 0 -45 0 -46
-245 -242 -246 -242 1 -157 0 -158 -95 0 -95 0 0 55 c0 30 -3 55 -6 55 -3 0
-24 -13 -47 -29 -74 -50 -122 -70 -216 -86 -87 -15 -97 -15 -198 5 -100 18
-113 24 -192 77 -98 68 -163 144 -204 241 l-27 66 87 88 88 88 11 -67 c14 -94
60 -179 126 -235 104 -88 256 -112 355 -56 35 20 703 669 703 683 0 3 -38 5
-85 5 l-85 0 0 90 0 90 85 0 85 0 0 185 0 185 100 0 100 0 0 -185z m-2070
-230 c36 -21 73 -45 83 -53 16 -14 17 -11 17 41 l0 57 105 0 105 0 0 -177 0
-178 -92 -92 c-51 -51 -96 -93 -100 -93 -5 0 -8 15 -8 32 0 18 -12 64 -26 103
-93 248 -416 305 -586 103 -90 -107 -111 -244 -57 -373 57 -138 181 -221 327
-218 59 1 82 7 120 29 28 15 195 174 407 383 431 428 465 454 637 487 154 30
232 16 366 -65 l82 -49 0 54 0 54 105 0 105 0 0 -178 0 -177 -100 -100 c-99
-99 -100 -99 -100 -67 0 62 -46 170 -99 231 -43 50 -61 62 -123 85 -47 16 -93
26 -129 26 -62 0 -153 -28 -202 -61 -18 -13 -143 -133 -279 -268 l-248 -245 0
-158 0 -159 -102 3 -103 3 -3 53 -3 52 -60 -41 c-88 -59 -209 -92 -319 -87
-70 4 -101 11 -175 43 -77 33 -101 49 -172 118 -77 76 -85 88 -125 186 -41
102 -43 110 -43 211 1 101 2 109 43 206 39 90 51 109 121 178 65 64 93 84 167
118 112 51 177 59 304 37 75 -12 109 -24 160 -54z m2070 -680 l0 -335 -100 0
-100 0 0 237 0 238 97 97 c54 54 99 98 100 98 2 0 3 -151 3 -335z m-2724 -680
c18 -49 33 -96 33 -102 2 -26 -27 -12 -38 17 -9 27 -15 30 -50 30 -34 0 -40
-3 -50 -30 -5 -17 -17 -30 -27 -30 -11 0 -14 5 -9 18 3 9 20 57 37 105 26 74
34 88 51 85 15 -2 28 -24 53 -93z m944 80 c0 -8 -7 -15 -15 -15 -8 0 -15 7
-15 15 0 8 7 15 15 15 8 0 15 -7 15 -15z m530 -5 c25 -25 25 -31 1 -61 -16
-20 -17 -28 -6 -42 15 -21 25 -22 25 -2 0 8 7 15 15 15 17 0 17 -5 6 -35 -5
-13 -3 -28 7 -42 13 -20 13 -23 -1 -23 -9 0 -19 4 -22 10 -4 6 -15 4 -30 -6
-50 -32 -116 15 -96 68 5 14 16 28 25 31 12 5 13 11 3 37 -11 29 -10 34 12 51
29 24 36 24 61 -1z m310 11 c0 -6 -15 -11 -32 -13 l-33 -3 -3 -92 c-2 -74 -6
-93 -17 -93 -12 0 -15 18 -15 95 l0 95 -35 0 c-19 0 -35 5 -35 10 0 6 35 10
85 10 47 0 85 -4 85 -9z m750 -96 c0 -87 -3 -105 -15 -105 -12 0 -15 18 -15
105 0 87 3 105 15 105 12 0 15 -18 15 -105z m-1660 66 c0 -11 6 -22 13 -25 10
-5 10 -7 0 -12 -16 -7 -18 -114 -3 -114 6 0 10 -7 10 -16 0 -10 -7 -14 -22
-12 -21 3 -23 9 -26 68 -2 35 -8 68 -15 73 -9 7 -9 10 1 14 6 2 12 13 12 24 0
10 7 19 15 19 8 0 15 -9 15 -19z m-710 -31 c11 -11 20 -24 20 -30 0 -16 -27
-12 -34 5 -7 20 -52 19 -60 -1 -18 -46 -2 -94 30 -94 14 0 27 7 30 15 7 17 34
21 34 5 0 -18 -39 -50 -60 -50 -12 0 -32 11 -45 25 -34 33 -34 87 0 120 29 30
58 32 85 5z m138 4 c12 -8 22 -22 22 -30 0 -19 -26 -18 -34 1 -9 24 -45 18
-58 -10 -24 -53 28 -112 62 -70 16 19 30 19 30 0 0 -23 -46 -48 -76 -41 -37
10 -59 66 -44 112 18 52 56 68 98 38z m157 -9 c34 -33 34 -87 0 -120 -31 -32
-59 -32 -90 0 -34 33 -34 87 0 120 13 14 34 25 45 25 12 0 32 -11 45 -25z
m327 8 c24 -22 27 -143 3 -143 -12 0 -15 13 -15 60 0 47 -4 62 -16 67 -32 12
-49 -11 -52 -71 -2 -41 -7 -56 -17 -56 -12 0 -15 16 -15 76 0 70 2 76 19 71
10 -2 25 -1 32 4 21 13 41 11 61 -8z m299 7 c16 -9 19 -22 19 -80 0 -40 -4
-70 -10 -70 -5 0 -10 24 -10 53 0 63 -10 80 -41 75 -22 -3 -24 -8 -27 -65 -2
-47 -7 -63 -17 -63 -12 0 -15 16 -15 76 0 67 2 75 18 70 9 -3 24 -1 32 4 19
12 27 12 51 0z m168 -1 c23 1 23 0 19 -88 -2 -53 -9 -96 -17 -105 -17 -21 -84
-21 -101 -1 -19 22 -4 31 26 15 29 -16 57 -5 62 24 3 15 1 16 -17 6 -52 -27
-99 34 -80 103 11 41 35 60 64 51 11 -3 31 -5 44 -5z m659 -5 c18 -12 22 -25
22 -69 0 -30 5 -57 11 -61 7 -4 8 -9 0 -17 -7 -7 -14 -7 -24 1 -10 9 -21 9
-45 0 -27 -10 -34 -9 -51 7 -40 35 -21 71 43 82 26 4 36 11 36 24 0 14 -7 19
-30 19 -16 0 -30 -4 -30 -10 0 -5 -7 -10 -15 -10 -8 0 -15 4 -15 9 0 13 41 41
60 41 9 0 26 -7 38 -16z m317 -9 c14 -13 25 -33 25 -45 0 -18 -6 -20 -55 -20
-38 0 -55 -4 -55 -13 0 -33 62 -52 74 -22 7 19 26 20 26 1 0 -18 -38 -46 -63
-46 -31 0 -67 45 -67 85 0 41 36 85 70 85 12 0 32 -11 45 -25z m146 6 c29 -24
18 -39 -15 -21 -27 14 -60 7 -54 -12 3 -7 21 -17 42 -21 41 -10 51 -25 42 -61
-8 -33 -57 -44 -91 -22 -14 9 -25 23 -25 31 0 19 14 19 30 -1 16 -18 65 -15
65 5 0 8 -15 19 -35 23 -33 9 -60 31 -60 50 0 15 40 48 59 48 10 0 29 -9 42
-19z m300 9 c16 -9 19 -22 19 -80 0 -40 -4 -70 -10 -70 -5 0 -10 24 -10 53 0
63 -10 80 -41 75 -22 -3 -24 -8 -27 -65 -2 -47 -7 -63 -17 -63 -12 0 -15 16
-15 76 0 67 2 75 18 70 9 -3 24 -1 32 4 19 12 27 12 51 0z m149 -10 c11 -11
20 -24 20 -30 0 -16 -27 -12 -34 5 -7 20 -52 19 -60 -1 -18 -46 -2 -94 30 -94
14 0 27 7 30 15 7 17 34 21 34 5 0 -18 -39 -50 -60 -50 -34 0 -70 44 -70 85 0
25 8 44 25 60 29 30 58 32 85 5z m-2290 -42 c0 -64 10 -81 41 -76 22 3 24 8
27 66 2 46 7 62 17 62 12 0 15 -16 15 -76 0 -64 -2 -75 -15 -70 -9 3 -24 0
-35 -6 -14 -9 -25 -9 -44 0 -24 11 -26 16 -26 82 0 40 4 70 10 70 6 0 10 -24
10 -52z m410 -23 c0 -60 -3 -75 -15 -75 -12 0 -15 15 -15 75 0 60 3 75 15 75
12 0 15 -15 15 -75z m1065 48 l17 -26 17 26 c8 15 21 27 28 27 18 0 16 -6 -9
-40 l-21 -29 27 -41 c24 -36 24 -40 8 -40 -10 0 -25 11 -32 25 -7 14 -16 25
-20 25 -4 0 -13 -11 -20 -25 -7 -14 -19 -25 -27 -25 -19 0 -16 9 12 45 l24 32
-24 34 c-29 38 -29 39 -11 39 7 0 22 -12 31 -27z"/>
<path d="M441 545 c-6 -16 -14 -36 -16 -42 -3 -9 6 -13 25 -13 33 0 34 1 15
50 l-13 35 -11 -30z"/>
<path d="M1924 569 c-8 -14 21 -43 35 -35 19 12 13 46 -8 46 -11 0 -23 -5 -27
-11z"/>
<path d="M1909 474 c-26 -31 25 -70 57 -43 13 10 12 15 -7 36 -26 27 -32 28
-50 7z"/>
<path d="M891 516 c-17 -20 -10 -77 12 -90 25 -16 51 4 55 43 4 36 -12 61 -38
61 -10 0 -23 -6 -29 -14z"/>
<path d="M1678 505 c-17 -38 0 -80 32 -80 18 0 27 8 34 27 13 36 -6 78 -34 78
-12 0 -25 -10 -32 -25z"/>
<path d="M2358 459 c-31 -18 -22 -41 15 -37 24 2 33 8 35 26 4 24 -19 30 -50
11z"/>
<path d="M2662 518 c-21 -21 -13 -28 28 -28 22 0 40 4 40 8 0 14 -23 32 -40
32 -9 0 -21 -5 -28 -12z"/>
</g>
</svg>
